<?xml version="1.0" ?><svg enable-background="new 0 0 64 64" height="64px" id="Layer_1" version="1.1" viewBox="0 0 64 64" width="64px" xml:space="preserve" xmlns="http://www.w3.org/2000/svg" xmlns:xlink="http://www.w3.org/1999/xlink"><circle cx="32" cy="32" fill="#77B3D4" r="32"/><g opacity="0.2"><path d="M43,51c0,0-10.172,2-18.917,2s-13.167-7.083-13.167-7.083h41.917C52.833,45.917,51.167,50,43,51z" fill="#231F20"/><path d="M24.083,53.5c-8.919,0-13.403-7.02-13.59-7.319c-0.097-0.154-0.102-0.348-0.014-0.507   c0.088-0.159,0.256-0.257,0.438-0.257h41.916c0.167,0,0.322,0.083,0.415,0.221s0.11,0.313,0.048,0.468   c-0.072,0.178-1.873,4.367-10.235,5.391C42.994,51.511,32.775,53.5,24.083,53.5z M11.902,46.417   c1.422,1.787,5.533,6.083,12.181,6.083c8.596,0,18.72-1.971,18.82-1.991c5.716-0.701,8.14-2.944,9.026-4.093H11.902z" fill="#231F20"/></g><path d="M28.085,11.507c-0.203-0.037-0.405,0.057-0.512,0.232c-0.106,0.175-0.096,0.397,0.026,0.561  c6.731,8.975,3.678,21.564,1.9,26.919V18c0-0.25-0.185-0.461-0.433-0.496c-0.244-0.028-0.482,0.121-0.549,0.361  c-0.057,0.204-5.784,20.434-14.689,23.664c-0.228,0.083-0.363,0.318-0.321,0.557C13.55,42.326,13.757,42.5,14,42.5h15h20  c0.276,0,0.5-0.224,0.5-0.5C49.5,15.504,28.299,11.544,28.085,11.507z" fill="#231F20" opacity="0.2"/><path d="M43,49c0,0-10.172,2-18.917,2  s-13.167-7.083-13.167-7.083h41.917C52.833,43.917,51.167,48,43,49z" fill="#FFFFFF" stroke="#FFFFFF" stroke-linejoin="round" stroke-miterlimit="10"/><path d="M29,16c0,0-5.75,20.644-15,24h15V16z" fill="#F5CF87" stroke="#F5CF87" stroke-linejoin="round" stroke-miterlimit="10"/><path d="M29,40c0,0,8-18-1-30c0,0,21,3.619,21,30  H29z" fill="#C75C5C" stroke="#C75C5C" stroke-linejoin="round" stroke-miterlimit="10"/></svg>